<?xml version="1.0" standalone="no"?>

<svg version="1.0" xmlns="http://www.w3.org/2000/svg"
 width="800" height="400" viewBox="0 0 2000.000000 2000.000000"
 preserveAspectRatio="xMidYMid meet">

<g transform="translate(0.000000,2000.000000) scale(0.100000,-0.100000)"
fill="#111" stroke="none">
<path d="M8864 18866 c-67 -29 -104 -112 -84 -186 10 -38 34 -68 153 -187 78
-79 146 -143 152 -143 6 0 74 64 152 143 157 158 174 188 154 264 -21 77 -79
123 -155 123 -46 0 -77 -13 -119 -49 l-34 -31 -19 21 c-48 53 -136 73 -200 45z
m124 -40 c15 -8 40 -28 56 -45 17 -17 35 -31 41 -31 6 0 24 14 41 31 38 41 75
59 118 59 70 0 129 -84 107 -153 -7 -20 -59 -81 -139 -160 l-128 -127 -130
132 c-138 140 -153 165 -134 224 24 71 103 104 168 70z"/>
<path d="M10483 18159 c-71 -21 -123 -109 -108 -186 6 -32 30 -62 153 -185 80
-82 151 -148 157 -148 6 0 76 66 157 148 158 160 170 180 148 261 -13 49 -74
106 -123 115 -51 9 -108 -8 -142 -44 -34 -36 -46 -37 -71 -9 -23 26 -91 59
-119 58 -11 0 -34 -5 -52 -10z m90 -43 c18 -7 45 -28 61 -45 35 -36 56 -39 82
-10 38 42 102 72 139 65 43 -8 90 -55 99 -96 10 -53 -18 -95 -145 -221 l-122
-120 -70 68 c-207 200 -220 219 -197 288 14 44 57 76 113 84 4 0 22 -5 40 -13z"/>
<path d="M7185 17500 c-113 -56 -164 -203 -108 -315 17 -34 422 -445 438 -445
20 0 429 418 447 457 10 21 17 62 18 93 0 130 -101 230 -232 230 -67 0 -124
-26 -186 -84 l-48 -45 -45 45 c-24 26 -62 55 -84 65 -54 25 -147 24 -200 -1z
m170 -30 c15 -6 55 -35 88 -65 33 -30 68 -55 77 -55 9 0 36 21 60 46 60 61
107 84 173 84 138 0 229 -148 167 -274 -12 -25 -96 -118 -210 -231 l-190 -190
-196 195 c-107 107 -201 206 -209 220 -49 94 -9 216 87 263 37 19 114 22 153
7z"/>
<path d="M10270 17020 c-216 -21 -453 -118 -611 -251 -106 -89 -134 -159 -84
-213 l25 -27 -31 -76 c-40 -101 -79 -238 -79 -277 0 -18 7 -54 16 -80 21 -62
14 -130 -25 -212 -27 -57 -103 -154 -121 -154 -5 0 -13 14 -19 30 -8 25 -7 36
9 63 59 102 66 259 15 363 -79 162 -277 270 -618 335 -301 58 -657 -27 -963
-229 -159 -106 -295 -251 -380 -408 -15 -27 -29 -51 -30 -52 -1 -2 -65 22
-140 53 -450 188 -880 276 -1349 277 -236 1 -319 -5 -520 -33 -635 -90 -1211
-340 -1720 -745 -142 -113 -427 -398 -539 -539 -415 -523 -663 -1114 -753
-1790 -24 -185 -24 -668 1 -850 94 -699 350 -1290 793 -1834 51 -62 566 -587
1247 -1270 639 -640 1152 -1160 1141 -1156 -103 40 -396 85 -554 85 -75 0
-107 -22 -92 -61 12 -33 59 -67 103 -75 67 -13 290 -106 284 -119 -2 -7 -31
-50 -64 -96 -87 -124 -180 -273 -226 -364 l-41 -80 1 -135 c2 -200 52 -478
104 -580 62 -122 127 -54 255 265 27 66 54 127 59 136 41 59 338 298 414 331
56 25 79 20 384 -79 l236 -76 802 -802 801 -801 -10 -140 c-26 -341 -11 -657
65 -1374 25 -234 48 -466 51 -517 l6 -92 -115 -183 c-169 -268 -172 -276 -172
-378 0 -47 8 -121 18 -164 15 -64 19 -143 25 -405 l6 -325 25 -7 c14 -4 -641
-7 -1456 -8 -814 -1 -1483 1 -1486 4 -2 3 14 53 36 111 l41 105 40 -5 c221
-31 286 -28 379 13 56 24 125 87 143 128 44 106 -26 223 -134 223 -121 0 -296
-114 -367 -240 -14 -25 -26 -42 -26 -39 0 3 24 79 54 170 30 90 67 225 82 299
15 74 28 136 29 138 1 1 51 -11 111 -28 134 -38 234 -41 313 -11 120 45 166
104 159 202 -3 48 -10 65 -33 89 -62 65 -164 65 -298 1 -96 -45 -143 -80 -199
-151 -22 -28 -42 -49 -44 -47 -2 2 0 26 5 53 5 27 22 168 36 314 15 146 29
267 31 269 2 2 43 -8 91 -22 142 -42 211 -50 294 -32 120 25 185 74 208 160
22 82 -34 176 -114 191 -98 18 -269 -50 -365 -145 -31 -31 -69 -72 -83 -91
l-27 -35 0 27 c0 113 89 578 111 578 5 0 56 -14 112 -31 183 -56 340 -38 428
50 123 122 31 302 -140 276 -124 -19 -263 -100 -341 -199 -29 -36 -54 -66 -56
-66 -18 0 176 426 221 484 14 18 17 18 97 -17 134 -57 191 -70 279 -64 89 6
151 30 197 78 79 82 57 213 -45 255 -97 41 -311 -19 -419 -118 -36 -33 -44
-37 -34 -18 16 30 133 191 202 276 l50 62 81 6 c195 16 270 41 354 119 79 72
104 164 64 237 -99 188 -389 27 -480 -268 -26 -81 -36 -99 -118 -199 -49 -61
-115 -147 -147 -192 -32 -44 -59 -81 -61 -81 -1 0 6 35 17 78 48 184 -15 416
-128 472 -52 26 -79 25 -134 -2 -87 -44 -114 -153 -69 -273 34 -92 112 -176
252 -272 l46 -32 -61 -103 c-62 -104 -139 -261 -174 -353 l-19 -50 -6 100 c-5
82 -11 114 -38 175 -61 145 -136 221 -224 228 -42 3 -58 -1 -86 -20 -59 -40
-76 -72 -76 -141 0 -148 111 -261 334 -341 41 -15 77 -29 81 -31 5 -3 0 -31
-10 -62 -26 -85 -67 -274 -83 -383 l-13 -95 -17 69 c-61 248 -237 391 -357
289 -94 -78 -79 -218 36 -337 46 -49 177 -119 272 -147 34 -10 42 -17 42 -35
0 -26 -42 -363 -61 -489 l-12 -80 -18 73 c-36 145 -136 288 -219 313 -104 31
-200 -47 -200 -164 0 -60 48 -153 109 -210 55 -51 112 -83 223 -122 74 -26 77
-29 72 -54 -32 -138 -63 -245 -106 -360 -66 -177 -69 -182 -62 -86 7 89 -10
179 -50 274 -13 31 -29 75 -35 99 -25 92 -107 144 -192 122 -111 -30 -226
-258 -211 -421 2 -30 2 -52 -1 -49 -3 3 -19 60 -36 126 -34 136 -82 280 -131
397 -18 43 -31 80 -29 81 2 2 44 16 94 31 168 51 267 121 317 224 58 119 1
245 -116 258 -56 7 -107 -20 -169 -86 -56 -59 -123 -193 -132 -260 -18 -138
-3 -150 -142 120 -68 134 -136 263 -150 287 -13 24 -23 45 -21 47 1 1 39 13
83 25 179 50 291 126 340 233 60 127 -3 257 -123 257 -58 0 -111 -29 -166 -92
-84 -96 -136 -229 -136 -349 0 -27 -4 -49 -8 -49 -20 0 -222 458 -238 537 -5
28 -4 28 92 56 132 38 200 72 257 129 65 66 101 144 95 210 -12 116 -125 181
-226 129 -113 -58 -222 -256 -222 -401 0 -33 -4 -61 -9 -64 -19 -12 -69 262
-78 425 l-6 116 79 12 c182 30 298 89 362 187 66 98 54 195 -32 258 -20 15
-43 21 -80 21 -44 0 -62 -6 -108 -37 -87 -58 -190 -207 -204 -297 -4 -23 -11
-41 -17 -41 -10 0 -6 122 10 310 3 41 3 73 0 70 -9 -9 -16 -98 -23 -273 -4
-92 -10 -164 -14 -160 -4 4 -17 38 -29 74 -28 85 -66 144 -139 216 -132 130
-257 145 -335 42 -49 -67 -27 -168 52 -242 89 -83 159 -108 330 -116 l126 -6
6 -125 c7 -139 23 -262 45 -359 8 -35 13 -66 10 -68 -2 -2 -18 19 -36 46 -93
146 -305 259 -428 229 -117 -29 -147 -180 -53 -271 90 -89 218 -113 391 -77
154 33 137 41 179 -85 36 -107 104 -272 142 -347 11 -21 18 -38 16 -38 -2 0
-21 16 -41 35 -85 80 -198 138 -292 150 -98 12 -179 -58 -177 -156 1 -86 68
-159 176 -195 29 -9 53 -18 55 -19 2 -1 -6 -20 -17 -41 -11 -22 -23 -51 -26
-66 l-7 -27 54 5 c29 3 67 10 84 15 38 12 82 57 92 94 7 26 15 30 87 47 43 10
79 17 81 16 7 -8 254 -512 254 -519 0 -5 -18 9 -40 31 -90 90 -215 150 -311
150 -72 0 -110 -17 -139 -65 -28 -46 -25 -140 6 -183 27 -36 106 -89 157 -104
60 -19 218 -13 309 10 l77 19 31 -80 c36 -95 71 -215 100 -347 11 -52 23 -103
26 -112 11 -38 -12 -16 -30 28 -56 137 -243 278 -366 276 -74 -1 -130 -50
-145 -128 -15 -83 45 -173 149 -224 80 -40 166 -52 297 -41 57 4 105 7 107 5
4 -2 51 -253 52 -271 0 -10 -144 -13 -685 -13 -386 0 -685 4 -685 9 0 5 7 24
15 44 l14 35 60 -5 c81 -8 124 2 161 37 39 37 39 83 -1 112 -24 18 -30 18 -70
7 -25 -8 -62 -31 -87 -55 -24 -23 -41 -36 -38 -29 17 45 45 149 51 189 7 43
10 47 29 42 115 -34 166 -30 214 14 28 26 30 80 4 103 -40 36 -138 9 -199 -53
-18 -19 -33 -30 -33 -24 1 32 29 256 33 260 2 2 31 -3 63 -11 104 -28 194 9
194 79 0 93 -137 85 -228 -13 l-34 -36 7 50 c11 82 36 199 44 208 4 4 27 1 50
-8 80 -28 176 -12 200 33 28 52 -3 112 -56 112 -39 -1 -112 -36 -152 -73 -32
-31 -33 -31 -26 -7 9 30 83 180 89 180 3 0 25 -9 51 -20 69 -29 145 -27 184 6
58 49 30 124 -47 124 -20 0 -61 -11 -90 -25 -29 -13 -56 -25 -60 -26 -4 -1
-12 -9 -18 -17 -8 -12 -10 3 -7 59 4 63 1 81 -19 119 -21 41 -27 45 -65 48
-33 2 -44 -1 -57 -20 -43 -61 -3 -146 104 -221 l22 -16 -21 -30 c-12 -17 -37
-63 -55 -102 l-33 -71 -5 40 c-7 48 -32 103 -63 137 -32 33 -87 35 -109 3 -43
-61 7 -146 109 -186 58 -23 58 -21 28 -157 l-20 -90 -11 41 c-17 58 -70 117
-107 117 -40 -1 -79 -46 -70 -82 14 -57 51 -97 119 -126 59 -26 64 -31 60 -54
-6 -36 -24 -181 -24 -192 0 -5 -4 -9 -10 -9 -5 0 -10 7 -10 15 0 21 -28 75
-53 102 -14 16 -32 23 -58 23 -45 0 -64 -20 -64 -69 0 -55 37 -99 112 -132 34
-16 63 -34 63 -39 0 -5 -14 -54 -31 -107 l-32 -98 -12 55 c-21 90 -49 154 -74
166 -54 27 -108 -23 -134 -125 l-13 -51 -13 52 c-8 29 -24 80 -37 113 -14 33
-22 65 -20 71 2 6 26 17 52 24 87 25 148 103 125 163 -38 99 -166 20 -190
-116 l-7 -42 -57 110 c-31 61 -59 117 -62 125 -3 11 11 20 55 34 76 23 130 78
130 131 0 41 -29 75 -64 75 -52 0 -126 -98 -126 -168 0 -58 -18 -42 -60 53
-58 134 -58 143 7 166 64 22 90 39 114 76 26 39 24 87 -4 113 -31 30 -73 20
-115 -27 -30 -34 -40 -58 -58 -138 -8 -38 -11 -31 -29 80 l-15 90 5 -76 c2
-42 8 -85 11 -95 4 -11 -7 -5 -27 17 -68 72 -159 99 -199 59 -38 -38 -18 -95
43 -126 23 -13 47 -15 96 -11 37 3 73 8 82 12 13 5 21 -5 34 -47 10 -29 28
-77 41 -106 l23 -52 -47 32 c-37 26 -57 32 -96 33 -44 0 -52 -3 -65 -27 -21
-36 -6 -75 39 -106 31 -21 43 -23 105 -19 39 3 77 8 85 11 11 5 28 -20 68 -99
28 -58 52 -107 52 -110 0 -2 -20 10 -45 27 -37 26 -56 32 -97 33 -46 0 -54 -3
-67 -27 -19 -34 -7 -73 32 -102 22 -16 43 -21 95 -21 37 0 78 2 91 5 23 5 27
0 52 -80 14 -47 29 -98 33 -115 6 -29 6 -29 -9 -10 -69 92 -144 131 -189 101
-93 -60 9 -174 146 -164 66 5 72 -1 80 -73 l3 -34 -740 -2 c-407 -2 -746 -5
-754 -8 -9 -4 -11 -9 -5 -15 6 -6 1586 -10 4059 -10 2381 -1 4102 -5 4175 -11
69 -5 181 -13 250 -19 69 -5 179 -12 245 -15 66 -4 143 -8 170 -11 28 -2 214
-7 415 -10 279 -5 408 -2 545 9 99 8 227 15 285 16 58 1 196 6 306 12 111 5
370 8 575 7 285 -2 379 0 396 10 17 9 587 12 2757 12 2425 0 2736 2 2736 15 0
13 -78 15 -645 15 -510 0 -645 3 -645 13 1 6 7 25 14 42 l12 29 80 -2 c62 -2
86 1 114 16 64 34 77 104 26 137 -35 23 -92 5 -152 -48 -31 -27 -45 -35 -40
-22 5 11 20 65 34 120 14 55 26 101 27 102 0 1 27 -5 59 -13 105 -27 196 10
196 80 0 89 -128 86 -219 -5 l-34 -34 6 40 c4 23 10 80 13 127 4 48 10 92 14
98 5 8 22 7 64 -5 102 -30 196 9 196 79 0 93 -138 85 -227 -12 -21 -23 -33
-30 -33 -21 0 25 38 227 44 238 4 6 24 5 54 -4 128 -39 237 15 206 102 -21 61
-124 49 -206 -25 -21 -19 -38 -29 -38 -23 0 12 88 191 94 191 2 0 23 -9 47
-19 78 -34 150 -31 190 8 34 35 38 72 9 101 -29 29 -86 26 -154 -8 -31 -16
-56 -27 -56 -25 0 2 12 21 26 41 15 20 17 27 5 14 -11 -13 -29 -36 -40 -50
l-20 -27 6 55 c6 62 -8 127 -35 161 -40 48 -122 14 -122 -51 0 -59 30 -107
100 -159 l35 -26 -52 -103 c-29 -57 -53 -102 -54 -100 0 2 -2 20 -4 40 -8 79
-69 158 -121 158 -40 0 -64 -29 -64 -77 0 -46 57 -107 123 -132 60 -22 58 -15
29 -156 l-18 -90 -13 40 c-17 50 -56 104 -84 114 -33 13 -74 -7 -88 -41 -11
-28 -10 -36 12 -77 20 -39 35 -51 95 -81 39 -19 69 -40 68 -45 -1 -6 -8 -56
-14 -112 -12 -103 -23 -127 -33 -75 -8 42 -62 109 -91 114 -34 7 -69 -12 -80
-43 -21 -60 21 -120 111 -161 56 -25 63 -31 58 -51 -23 -86 -61 -197 -66 -197
-3 0 -6 17 -6 38 0 44 -40 167 -59 183 -18 15 -71 14 -90 -2 -24 -20 -64 -108
-65 -144 0 -20 -11 2 -33 70 -18 55 -37 110 -44 121 -11 20 -7 23 48 43 108
40 158 107 126 169 -45 87 -162 11 -184 -119 l-8 -44 -62 117 c-34 65 -62 122
-62 128 0 5 8 10 18 10 32 0 118 47 145 79 33 40 36 92 7 121 -27 27 -62 25
-100 -6 -38 -32 -60 -73 -74 -138 l-11 -50 -32 70 c-17 38 -41 92 -52 121
l-20 52 64 21 c117 39 174 138 108 190 -19 14 -35 19 -53 15 -40 -9 -89 -73
-108 -139 -14 -51 -17 -56 -24 -35 -4 13 -12 56 -17 94 l-10 70 4 -75 c2 -41
7 -84 11 -95 4 -13 -5 -7 -27 16 -69 74 -172 102 -203 57 -25 -36 -20 -73 15
-102 17 -14 42 -29 56 -32 26 -7 128 1 155 11 12 5 20 -6 33 -47 10 -29 28
-77 41 -105 22 -52 19 -69 -7 -37 -21 26 -86 54 -123 54 -61 0 -89 -75 -43
-117 47 -44 104 -54 190 -34 42 10 41 12 114 -142 l32 -67 -47 32 c-37 26 -57
32 -96 33 -44 0 -52 -3 -65 -27 -19 -34 -7 -73 32 -102 22 -16 43 -21 90 -21
34 0 74 3 90 8 24 7 29 4 38 -20 18 -48 59 -196 56 -200 -2 -2 -14 11 -27 29
-28 42 -89 86 -129 94 -23 5 -35 1 -55 -19 -71 -71 23 -163 158 -155 57 3 60
2 67 -22 4 -14 7 -40 8 -57 l1 -33 -821 0 c-778 0 -821 1 -815 18 4 9 23 59
43 111 l37 93 41 -6 c223 -32 292 -29 388 19 66 33 105 69 128 120 25 53 24
93 -4 145 -27 51 -75 80 -134 80 -111 0 -278 -110 -359 -236 -14 -21 -24 -32
-21 -24 2 8 23 73 46 143 39 121 75 260 101 390 10 47 15 58 28 54 202 -59
294 -71 383 -47 125 34 189 103 189 204 0 85 -69 146 -165 146 -112 -1 -288
-94 -366 -193 -24 -31 -45 -55 -47 -53 -1 2 4 55 12 117 9 63 23 186 31 274 8
88 18 181 21 206 l6 46 69 -23 c162 -55 272 -61 376 -22 106 39 161 113 150
204 -6 58 -30 92 -80 115 -52 23 -97 24 -168 3 -121 -36 -228 -108 -294 -198
-45 -62 -57 -68 -50 -28 3 15 10 70 16 122 14 119 44 281 71 383 17 64 23 77
37 71 51 -21 171 -55 230 -65 119 -20 269 28 322 102 67 95 28 217 -80 250
-56 17 -139 0 -236 -46 -80 -38 -145 -91 -201 -165 -21 -28 -40 -46 -42 -41
-8 25 166 403 217 470 l18 24 84 -36 c163 -69 254 -82 356 -52 106 31 163 94
163 179 0 133 -123 188 -296 135 -97 -30 -159 -63 -215 -116 -27 -25 -49 -42
-49 -38 0 25 263 365 283 365 256 7 402 64 474 188 70 118 4 252 -123 252
-132 0 -290 -159 -348 -353 -24 -79 -35 -97 -104 -180 -43 -51 -106 -132 -141
-182 -78 -109 -86 -118 -77 -85 31 115 37 166 27 246 -24 199 -107 312 -218
301 -53 -6 -110 -47 -130 -96 -33 -78 -8 -205 58 -295 32 -44 104 -107 191
-167 l57 -39 -28 -43 c-70 -103 -139 -241 -217 -432 -5 -14 -10 6 -15 65 -17
214 -148 410 -273 410 -127 0 -194 -135 -132 -265 51 -108 149 -182 326 -245
36 -13 66 -24 68 -26 2 -1 -12 -65 -32 -142 -19 -78 -42 -183 -51 -234 -30
-181 -26 -171 -41 -100 -30 146 -134 296 -223 323 -109 33 -218 -73 -196 -190
26 -138 152 -251 355 -316 30 -10 56 -19 58 -20 8 -7 -68 -568 -79 -580 -5 -5
-9 4 -9 23 0 46 -36 148 -76 213 -84 139 -199 184 -284 112 -43 -36 -60 -74
-60 -135 1 -139 119 -257 338 -338 70 -25 69 -24 47 -120 -28 -117 -150 -469
-160 -458 -1 2 1 31 6 65 11 82 -10 202 -50 290 -17 36 -31 76 -31 90 0 58
-64 126 -130 138 -104 19 -214 -99 -260 -281 -11 -42 -20 -102 -20 -133 -1
-55 -1 -54 -30 58 -42 162 -87 294 -154 452 l-15 36 82 23 c173 47 280 119
332 223 75 151 -32 306 -178 258 -102 -34 -219 -218 -242 -379 l-12 -87 -31
68 c-18 37 -84 167 -148 288 -64 121 -115 221 -113 223 2 2 51 18 109 36 136
41 190 71 255 142 83 90 105 189 59 267 -36 59 -115 85 -187 62 -57 -19 -133
-104 -183 -205 -38 -77 -46 -105 -54 -180 -5 -48 -11 -91 -14 -93 -6 -6 -112
213 -163 337 -49 118 -83 219 -75 224 4 2 43 14 87 26 174 48 280 121 336 230
43 83 25 182 -42 233 -38 28 -108 33 -153 12 -114 -54 -217 -236 -232 -409 -4
-43 -9 -64 -14 -55 -21 39 -63 287 -75 449 l-7 85 118 23 c142 27 207 55 275
119 109 102 127 221 43 300 -89 84 -216 37 -330 -122 -48 -68 -70 -114 -90
-190 -12 -46 -13 -36 -10 125 4 189 -7 149 -19 -70 -3 -69 -8 -126 -10 -128
-1 -2 -13 27 -25 65 -13 37 -38 91 -56 119 -74 112 -212 214 -292 214 -52 0
-109 -35 -133 -82 -46 -90 -4 -200 103 -271 81 -53 137 -68 280 -74 l126 -6 6
-86 c10 -145 36 -353 51 -411 8 -30 13 -56 11 -58 -3 -2 -22 23 -45 56 -51 76
-117 132 -206 177 -147 74 -259 64 -306 -27 -56 -108 7 -219 155 -274 70 -26
203 -24 320 5 49 12 90 20 92 18 2 -2 24 -61 48 -133 24 -71 69 -184 99 -252
l55 -122 -57 53 c-32 29 -89 69 -129 90 -133 70 -230 71 -291 2 -84 -96 -25
-237 124 -295 79 -31 204 -32 329 -1 49 12 90 20 92 18 6 -6 254 -518 254
-524 0 -3 -26 19 -58 49 -85 78 -188 130 -273 136 -106 7 -156 -23 -179 -109
-26 -95 48 -196 173 -237 78 -26 141 -27 252 -6 44 8 94 17 111 20 31 6 32 6
62 -75 48 -124 138 -471 123 -471 -4 0 -18 23 -32 52 -64 138 -238 270 -355
270 -155 0 -206 -186 -82 -297 92 -84 202 -111 386 -97 52 4 96 4 99 -1 9 -15
52 -261 47 -269 -3 -4 -419 -8 -924 -8 l-919 0 0 101 c0 97 -7 210 -16 255 -4
15 1 23 15 27 19 5 20 12 14 194 -3 103 -7 194 -10 201 -2 7 -15 17 -29 22
l-25 10 0 672 c0 1198 -32 1690 -131 2018 -52 171 -217 645 -313 900 l-73 195
1897 1900 c1976 1979 1982 1985 2162 2250 335 492 543 1069 598 1660 24 267 9
668 -35 928 -89 513 -298 1015 -602 1444 -479 675 -1196 1170 -1991 1374 -167
43 -392 84 -517 94 -44 4 -91 9 -105 11 -64 11 -525 3 -645 -11 -781 -91
-1436 -391 -2033 -933 -63 -57 -81 -69 -86 -56 -4 11 11 39 45 83 198 253 315
425 353 516 8 19 29 94 47 166 28 116 31 143 27 237 -8 191 -73 316 -268 513
-138 139 -245 217 -381 276 -137 59 -332 88 -489 73z m-479 -499 c-56 -122
-63 -167 -30 -197 18 -16 37 -19 125 -19 68 0 107 -4 115 -12 10 -10 10 -29 2
-84 -14 -88 -5 -115 46 -129 67 -19 80 -14 151 59 57 59 77 72 126 87 52 15
63 15 98 3 61 -21 81 -64 80 -169 -2 -153 -55 -319 -129 -401 -18 -21 -35 -53
-39 -75 -13 -69 -67 -166 -123 -222 -50 -50 -59 -72 -29 -72 7 0 36 23 63 50
43 43 83 108 119 197 8 21 14 17 69 -59 74 -99 187 -206 264 -247 32 -16 88
-38 126 -48 l68 -18 23 -100 c13 -55 21 -101 20 -103 -2 -2 -68 29 -146 68
l-141 71 -127 -35 c-70 -19 -128 -34 -129 -33 -1 1 8 29 19 62 15 44 19 76 15
121 -5 69 -22 102 -55 111 -45 11 -73 -25 -123 -153 -57 -149 -65 -164 -129
-244 -29 -36 -62 -82 -74 -102 -24 -44 -32 -47 -39 -15 -4 12 -12 30 -20 40
-13 18 -16 18 -110 -2 -97 -21 -202 -27 -224 -13 -32 20 -85 248 -84 359 1 80
2 84 39 133 43 56 72 129 72 178 0 51 -34 77 -116 91 -116 19 -122 22 -155 52
l-31 29 52 57 c97 109 146 245 121 340 -30 114 -24 155 52 352 35 92 44 106
84 135 65 46 147 88 151 77 2 -5 -20 -59 -47 -120z m-3546 -417 c240 -26 483
-80 720 -159 136 -45 372 -141 380 -155 2 -4 -7 -35 -20 -68 -61 -150 -91
-330 -74 -448 13 -94 47 -163 103 -210 66 -56 205 -138 297 -176 43 -17 79
-34 79 -38 0 -3 -45 -63 -100 -133 -175 -226 -250 -363 -250 -456 0 -134 141
-331 294 -412 34 -18 62 -33 63 -34 1 0 -9 -35 -23 -75 -31 -92 -40 -202 -25
-300 35 -229 163 -632 376 -1187 l93 -242 -23 -133 c-39 -225 -58 -395 -53
-496 5 -107 -8 -90 132 -187 47 -33 86 -63 86 -66 0 -3 -17 -11 -38 -17 -58
-18 -88 -50 -95 -105 -4 -25 -49 -209 -101 -409 -52 -200 -138 -529 -191 -733
-81 -313 -105 -391 -155 -506 -77 -175 -126 -304 -135 -351 -6 -34 -3 -41 42
-89 55 -59 210 -192 288 -247 l53 -37 12 -85 c31 -226 96 -599 146 -825 29
-138 54 -257 54 -263 0 -6 -6 -9 -12 -7 -50 18 -831 128 -1028 145 -436 38
-697 76 -1000 146 -199 46 -262 65 -387 117 l-103 42 -1203 1205 c-925 926
-1227 1234 -1305 1332 -238 299 -412 602 -547 953 -221 574 -282 1246 -169
1865 228 1243 1099 2258 2294 2675 306 106 584 160 985 189 91 7 398 -5 540
-20z m7530 5 c1103 -109 2088 -736 2659 -1690 350 -584 530 -1311 487 -1966
-33 -515 -144 -934 -362 -1373 -121 -243 -234 -419 -413 -645 -51 -65 -739
-761 -1970 -1996 -1040 -1043 -1893 -1896 -1896 -1897 -11 -4 -164 432 -196
557 -62 246 -195 924 -229 1164 -17 120 -13 141 51 305 54 139 89 257 108 370
8 46 16 85 17 87 2 2 62 -1 133 -6 85 -7 132 -7 139 0 7 7 6 35 -2 83 -6 40
-47 300 -92 578 -44 278 -103 645 -130 815 -27 171 -54 334 -59 364 -14 78
-15 75 41 128 67 63 124 150 138 211 11 45 9 62 -38 248 -47 188 -94 389 -141
604 -21 91 -21 103 -9 320 24 429 -25 798 -148 1130 -81 219 -273 580 -458
860 -94 143 -244 339 -286 375 -16 13 -29 29 -29 35 0 19 -39 88 -71 124 -21
25 -36 58 -49 113 l-19 78 32 34 c66 69 294 263 401 340 565 405 1191 626
1886 665 95 5 390 -3 505 -15z m-4618 -95 c47 -23 96 -95 119 -172 31 -106 46
-143 78 -185 42 -55 77 -74 166 -87 41 -7 85 -18 98 -26 42 -27 24 -105 -47
-199 l-39 -51 -7 -174 c-10 -247 -19 -318 -42 -342 -16 -16 -48 -22 -179 -35
-87 -8 -164 -19 -171 -25 -37 -30 -41 -203 -7 -303 20 -60 30 -73 45 -58 7 7
4 31 -11 81 -12 39 -20 89 -18 113 l3 44 55 -78 c125 -177 223 -383 256 -540
22 -107 19 -143 -15 -178 -25 -25 -37 -29 -83 -29 -64 0 -135 18 -255 62 l-87
33 -2 200 c-1 163 -6 229 -27 355 -54 322 -152 773 -288 1317 -31 122 -40 176
-33 183 20 20 192 89 260 104 85 19 180 15 231 -10z m-528 -171 c32 -117 150
-612 196 -818 143 -643 182 -990 130 -1162 -19 -64 -61 -103 -112 -103 -31 0
-44 9 -102 69 -174 181 -483 303 -662 261 -92 -21 -160 -60 -230 -129 -37 -36
-71 -74 -76 -85 -9 -16 -14 -17 -44 -7 -50 16 -147 93 -200 157 -110 132 -130
233 -72 356 38 81 82 147 204 303 72 93 104 145 141 230 94 213 254 446 437
637 l100 103 1 -69 c0 -38 -7 -132 -16 -209 -12 -106 -13 -142 -4 -151 29 -29
44 50 66 346 6 77 4 88 -10 94 -15 6 -15 9 6 32 31 34 217 182 228 182 5 0 14
-17 19 -37z m1751 -572 c17 -32 12 -126 -10 -181 -24 -61 -25 -89 -5 -96 8 -4
74 10 146 29 l130 36 115 -56 c63 -31 113 -57 112 -59 -2 -1 -43 12 -93 28
l-90 31 -149 -49 c-140 -46 -175 -65 -144 -76 7 -3 76 14 152 38 l139 44 158
-51 c150 -47 214 -77 137 -65 -18 3 -89 13 -157 21 l-124 14 -115 -39 c-122
-42 -143 -53 -126 -70 7 -7 50 4 130 30 l120 40 149 -19 150 -19 -133 -1 -132
-1 -99 -50 c-103 -51 -120 -65 -103 -82 6 -6 44 8 111 41 l101 51 150 0 c91 0
150 -4 150 -10 0 -16 -47 -23 -105 -15 -46 5 -63 3 -108 -18 -52 -24 -226
-125 -431 -250 -74 -46 -119 -67 -141 -67 -51 0 -177 -36 -241 -68 -69 -35
-110 -75 -118 -117 -8 -44 -23 -204 -46 -505 -26 -345 -30 -380 -42 -380 -42
0 -378 161 -378 181 0 10 391 813 521 1069 80 159 137 258 175 305 76 94 97
132 144 260 51 137 76 169 100 126z m-755 -458 c21 -18 38 -23 85 -23 51 0
183 20 230 35 13 4 22 -5 34 -36 9 -23 15 -43 13 -46 -9 -8 -245 -32 -427 -43
-165 -9 -323 -28 -387 -46 -17 -5 -23 -2 -23 9 0 9 5 19 11 22 6 4 78 13 160
21 204 18 224 34 230 184 3 80 10 82 31 9 11 -41 27 -72 43 -86z m1543 -199
c85 -103 291 -409 382 -567 252 -440 359 -741 411 -1152 18 -143 16 -519 -4
-690 -36 -308 -58 -874 -38 -980 6 -33 40 -244 76 -470 36 -225 94 -590 129
-810 113 -696 140 -875 133 -881 -4 -4 -96 -1 -204 5 -298 19 -1018 26 -1200
12 -363 -28 -755 -126 -1122 -282 l-114 -48 6 342 c8 403 20 653 47 982 32
385 48 528 61 535 6 4 39 11 73 14 181 20 540 117 661 179 97 49 96 46 209
527 177 751 317 1464 320 1625 1 64 -2 80 -14 80 -11 0 -19 -36 -36 -155 -27
-191 -68 -413 -140 -760 -95 -455 -253 -1135 -283 -1212 -14 -38 -91 -79 -235
-127 -165 -54 -300 -83 -641 -135 -159 -25 -396 -63 -525 -86 -129 -22 -240
-40 -246 -40 -6 0 -19 17 -28 38 -17 37 -16 47 8 248 13 115 30 267 37 338 11
110 16 130 34 142 11 7 162 79 335 159 173 81 318 152 322 158 3 5 9 34 13 63
l6 52 59 22 c32 12 68 32 79 44 23 24 24 43 75 756 3 41 13 172 21 290 9 118
22 301 30 405 8 105 17 224 20 265 23 325 59 699 68 720 17 35 98 86 174 110
159 49 345 47 503 -6 91 -31 291 -126 383 -182 71 -44 97 -51 97 -27 0 22 -67
67 -199 134 -201 102 -373 160 -474 161 -31 1 -31 1 -12 16 37 28 329 201 400
237 66 33 74 35 141 30 43 -3 79 -1 90 5 11 6 24 10 29 8 6 -1 43 -43 83 -92z
m-2068 -1001 c0 -10 -37 -58 -81 -107 -112 -123 -225 -266 -306 -388 -78 -118
-194 -342 -220 -424 -17 -56 -36 -75 -54 -57 -7 7 1 40 24 100 96 247 278 528
507 781 98 108 130 132 130 95z m130 -152 c0 -10 -17 -56 -39 -102 -131 -284
-261 -708 -327 -1069 -32 -179 -30 -172 -51 -168 -14 3 -17 12 -15 43 5 60 59
322 97 472 86 333 279 843 319 843 9 0 16 -8 16 -19z m366 -87 c39 -19 107
-47 150 -62 l79 -28 -3 -35 c-1 -19 -16 -218 -32 -444 -36 -497 -41 -558 -46
-567 -9 -13 -79 -28 -136 -28 -40 0 -82 10 -145 34 -113 43 -384 163 -396 175
-10 10 7 106 64 366 56 254 69 291 142 413 36 59 83 145 106 190 l41 82 53
-31 c28 -17 84 -46 123 -65z m-653 -188 c3 -8 -2 -32 -12 -53 -28 -58 -94
-268 -145 -458 -81 -308 -144 -616 -207 -1009 -63 -399 -102 -526 -160 -526
-22 0 -52 42 -47 66 5 26 29 29 35 5 22 -86 68 82 137 509 90 548 202 1033
310 1333 47 132 74 172 89 133z m140 -828 c9 -7 53 -104 97 -215 44 -111 116
-279 161 -375 44 -95 83 -178 85 -184 4 -9 -121 -71 -445 -221 l-74 -34 6 53
c4 29 13 141 22 248 13 165 96 706 112 733 6 10 17 9 36 -5z m2931 -478 c15
-69 54 -234 87 -367 32 -134 59 -259 59 -278 0 -20 -11 -57 -24 -83 -25 -49
-120 -161 -129 -152 -3 3 -17 75 -31 160 -18 114 -24 180 -21 250 2 52 7 172
10 265 5 167 16 338 20 333 1 -2 15 -59 29 -128z m-2368 -1596 c-48 -520 -60
-755 -65 -1251 -2 -298 -1 -333 13 -333 9 0 73 25 144 55 70 30 128 50 130 45
5 -13 -83 -506 -129 -725 -22 -104 -43 -205 -46 -223 -3 -18 -9 -35 -14 -37
-23 -15 -239 -37 -409 -42 -163 -4 -222 -2 -355 15 -157 21 -585 96 -723 127
l-69 16 -12 67 c-24 137 -91 573 -91 591 0 11 9 21 24 25 95 24 533 870 650
1256 30 101 77 335 102 510 9 69 19 127 20 129 2 2 11 -6 21 -17 l18 -21 405
68 405 69 3 -27 c2 -15 -8 -148 -22 -297z m1949 -1604 c3 -5 -71 -245 -165
-532 -420 -1279 -382 -1149 -375 -1312 3 -72 8 -149 11 -172 3 -28 0 -45 -9
-53 -31 -25 -38 11 -40 211 l-2 193 38 120 c57 177 263 812 389 1195 61 184
115 341 120 348 13 15 25 16 33 2z m-1675 -1055 c24 -667 44 -928 106 -1370
20 -137 80 -583 135 -990 l99 -740 -308 -308 -307 -307 -404 404 -404 404 22
123 c118 665 282 1301 663 2576 l103 343 40 8 c28 5 43 15 52 32 16 34 94 412
133 645 18 105 35 197 38 205 3 8 9 -149 13 -350 4 -201 12 -504 19 -675z
m-3320 -600 c116 -43 1071 -309 1506 -420 120 -31 224 -58 231 -60 8 -3 2 -40
-22 -132 -47 -177 -87 -288 -155 -423 -66 -131 -113 -258 -131 -351 -6 -35
-15 -70 -18 -76 -4 -8 -293 275 -761 744 -415 415 -746 752 -735 748 11 -4 49
-17 85 -30z m4606 -956 c42 -107 96 -248 120 -313 l45 -119 -57 -58 c-32 -32
-59 -57 -61 -56 -1 2 -29 153 -62 337 -33 184 -64 354 -69 378 -17 78 7 30 84
-169z m429 -1134 c248 -660 264 -714 284 -930 10 -112 10 -960 -1 -970 -3 -3
-15 -1 -27 6 -11 7 -23 10 -27 6 -4 -4 -31 -95 -60 -203 -29 -108 -61 -206
-71 -218 -80 -94 -248 -266 -251 -256 -3 7 4 83 13 170 10 87 16 164 13 172
-3 8 -30 20 -59 26 -30 7 -60 16 -67 21 -12 7 -14 139 -13 757 2 977 -22 1443
-98 1894 l-9 55 61 62 c48 49 63 60 70 48 4 -8 113 -296 242 -640z m-1990
-1075 c6 0 146 136 312 302 166 166 304 300 307 298 6 -7 94 -669 106 -806 12
-126 10 -607 -2 -620 -4 -3 -34 0 -67 9 -45 11 -63 12 -70 3 -5 -6 -12 -69
-16 -141 -4 -71 -9 -137 -11 -145 -1 -8 -3 -21 -3 -28 -1 -17 -109 -133 -195
-209 -59 -53 -116 -86 -356 -208 -157 -79 -301 -158 -321 -175 -50 -40 -85
-150 -61 -186 4 -6 23 -21 42 -33 l35 -21 -90 0 c-69 0 -86 3 -77 12 7 7 12
24 12 40 0 23 -12 35 -77 79 -105 69 -169 133 -202 199 -75 148 -150 382 -204
635 -29 140 -31 163 -31 355 0 205 8 326 45 665 20 186 95 726 105 759 5 15
87 -63 408 -383 221 -220 406 -401 411 -401z m842 -910 c387 -101 975 -259
979 -263 4 -3 -45 -459 -50 -464 -3 -4 -1159 467 -1167 476 -4 3 -2 75 4 159
8 116 13 152 23 148 7 -3 102 -28 211 -56z m1429 31 c35 -36 475 -197 740
-271 82 -23 153 -46 159 -51 5 -5 12 -81 15 -169 l5 -160 -37 0 c-108 0 -409
53 -538 95 -151 48 -467 199 -464 221 6 49 92 344 100 344 5 0 14 -4 20 -9z
m-1100 -563 l573 -233 1 -76 0 -76 -37 -6 c-310 -48 -770 -67 -1103 -46 -323
20 -907 83 -923 98 -13 13 108 84 346 203 270 134 326 171 442 288 65 65 95
89 109 86 10 -3 276 -110 592 -238z m1013 152 c82 -51 274 -138 383 -175 126
-42 313 -80 470 -97 l118 -12 4 -31 c14 -88 16 -155 6 -155 -5 0 -106 -11
-223 -24 -186 -22 -285 -32 -507 -51 -108 -9 -621 -27 -634 -22 -19 8 -21 144
-2 166 7 9 16 37 18 63 5 43 14 56 154 207 82 89 152 161 156 161 4 0 30 -14
57 -30z m-3571 -266 c44 -37 97 -125 158 -260 24 -53 53 -108 65 -121 l22 -23
-243 0 -243 0 7 168 c3 92 9 217 12 279 l7 112 89 -62 c49 -34 106 -76 126
-93z m-3517 -37 c32 -28 183 -120 212 -130 4 -1 -14 -54 -40 -117 l-49 -115
-144 0 -144 0 -32 155 c-17 85 -30 157 -27 159 8 9 158 79 171 80 8 1 31 -14
53 -32z m10247 -21 c42 -29 101 -65 130 -80 28 -14 52 -31 52 -37 0 -14 -69
-179 -86 -206 -14 -22 -20 -23 -149 -23 -73 0 -136 4 -139 9 -4 7 -66 295 -66
308 0 4 162 81 173 82 4 1 42 -23 85 -53z m-11879 -261 c0 -5 -8 -26 -17 -45
-17 -35 -18 -35 -81 -35 -71 0 -68 -3 -85 87 -6 35 -5 38 30 56 l37 19 59 -36
c32 -20 58 -40 57 -46z m13906 12 c6 -2 1 -22 -12 -50 l-23 -47 -60 0 c-67 0
-70 3 -85 87 -6 41 -6 42 31 61 l37 19 50 -33 c28 -19 56 -35 62 -37z m-4197
-14 l-3 -78 -692 -3 -693 -2 0 30 c0 29 1 30 48 30 247 0 830 41 1137 79 83
10 163 19 178 20 l28 1 -3 -77z m-3173 12 c364 -41 576 -56 855 -59 320 -4
609 13 853 51 l38 6 -3 -44 -3 -44 -910 0 c-826 0 -919 2 -1009 18 -146 26
-178 45 -159 92 7 20 -21 21 338 -20z m1649 -134 c3 -4 -36 -11 -86 -15 -204
-14 -977 -2 -918 15 36 10 998 11 1004 0z"/>
<path d="M9634 16240 c-31 -12 -74 -68 -74 -96 0 -37 26 -29 47 14 15 30 26
39 61 47 24 6 43 14 43 18 -1 4 -1 12 -1 17 0 12 -47 12 -76 0z"/>
<path d="M9644 15989 c-10 -12 -34 -28 -53 -36 -30 -13 -32 -16 -19 -29 12
-12 20 -13 44 -4 39 15 74 49 74 72 0 24 -23 23 -46 -3z"/>
<path d="M6470 14358 c-62 -31 -95 -97 -85 -166 6 -44 16 -56 153 -194 80 -82
151 -148 157 -148 6 0 74 64 152 143 109 110 144 151 153 182 32 110 -71 222
-185 201 -20 -4 -53 -22 -74 -42 -21 -19 -43 -34 -48 -34 -5 0 -20 12 -34 26
-51 56 -118 67 -189 32z m164 -67 c23 -23 48 -41 55 -41 7 0 33 18 58 40 57
50 103 60 153 34 20 -11 43 -35 53 -56 32 -65 20 -88 -126 -236 l-131 -132
-128 127 c-144 144 -161 173 -135 236 37 86 129 99 201 28z"/>
<path d="M11699 15237 c-134 -50 -194 -202 -129 -327 10 -19 113 -129 229
-245 l211 -210 206 205 c227 226 254 263 254 358 0 93 -48 168 -135 208 -95
45 -179 27 -267 -54 l-58 -54 -49 45 c-26 25 -63 53 -81 62 -44 23 -136 29
-181 12z m149 -42 c20 -9 62 -41 93 -71 66 -65 80 -65 129 -4 36 46 120 90
170 90 49 0 117 -37 154 -83 38 -48 48 -135 21 -188 -16 -33 -392 -419 -408
-419 -9 0 -328 317 -374 373 -45 53 -58 106 -42 170 27 112 150 176 257 132z"/>
<path d="M9135 15891 c-45 -11 -69 -26 -104 -66 -29 -34 -42 -75 -22 -75 5 0
23 18 40 39 33 41 107 78 136 67 20 -7 33 23 14 35 -16 10 -22 10 -64 0z"/>
<path d="M9266 15651 c-14 -22 -82 -43 -137 -42 -44 0 -59 -3 -59 -13 0 -18
22 -26 76 -26 69 0 154 42 154 77 0 14 -26 18 -34 4z"/>
<path d="M8513 15789 c-7 -7 2 -53 28 -143 74 -263 116 -519 124 -754 2 -73 7
-137 10 -142 3 -5 12 -7 20 -3 12 4 15 28 15 117 0 188 -35 437 -96 681 -54
216 -76 269 -101 244z"/>
<path d="M8663 14668 c-17 -23 -36 -169 -24 -181 7 -7 14 -8 21 -1 14 14 44
159 37 178 -8 19 -21 21 -34 4z"/>
<path d="M10253 14973 c-62 -36 -81 -63 -45 -63 25 0 127 64 127 80 0 24 -19
20 -82 -17z"/>
<path d="M10450 10649 c-156 -18 -342 -87 -489 -183 -63 -40 -71 -49 -72 -78
-1 -18 -3 -42 -4 -53 -3 -25 -8 -146 -6 -162 2 -21 25 -15 119 26 195 86 417
146 583 158 90 6 117 19 92 44 -15 15 -208 -7 -333 -37 -107 -27 -295 -91
-362 -125 -21 -11 -42 -19 -47 -19 -13 0 -2 160 12 178 19 24 158 100 248 136
92 37 260 76 327 76 44 0 69 19 50 38 -13 13 -11 13 -118 1z"/>
<path d="M3732 5803 c-71 -35 -119 -139 -131 -285 -7 -91 -1 -134 38 -273 11
-38 20 -58 20 -44 1 19 16 36 64 71 101 75 167 146 201 217 27 57 31 77 31
147 0 73 -3 84 -29 118 -48 63 -126 83 -194 49z"/>
<path d="M13955 5808 c-122 -67 -177 -312 -116 -508 13 -41 25 -77 27 -78 6
-8 164 120 211 172 90 98 126 242 83 330 -37 77 -141 120 -205 84z"/>
<path d="M13862 5160 c0 -19 2 -27 5 -17 2 9 2 25 0 35 -3 9 -5 1 -5 -18z"/>
<path d="M2556 3580 c-14 -17 -28 -47 -32 -66 -8 -44 1 -143 15 -157 16 -16
106 66 126 115 41 102 -43 185 -109 108z"/>
<path d="M16482 3603 c-7 -3 -21 -22 -32 -44 -22 -42 -27 -139 -10 -184 9 -22
13 -24 31 -15 40 22 95 86 107 126 24 82 -27 145 -96 117z"/>
<path d="M17594 3476 c-41 -18 -98 -87 -113 -137 -7 -22 -11 -42 -9 -44 2 -2
34 0 71 5 94 11 157 62 157 126 0 19 -45 64 -62 64 -7 -1 -27 -7 -44 -14z"/>
<path d="M2613 3286 c-22 -19 -50 -57 -63 -85 -13 -28 -26 -51 -29 -51 -3 1
-17 23 -30 51 -26 57 -89 109 -131 109 -30 0 -70 -37 -70 -64 0 -63 68 -114
164 -123 55 -5 66 -9 66 -24 0 -24 16 -25 22 -1 3 12 23 21 63 29 70 15 119
51 135 99 11 32 10 39 -7 63 -31 41 -73 40 -120 -3z"/>
<path d="M16539 3305 c-28 -15 -71 -75 -84 -115 -13 -43 -27 -40 -52 10 -44
89 -138 136 -182 89 -27 -29 -27 -69 0 -103 30 -38 71 -56 144 -63 36 -3 65
-10 65 -15 0 -5 7 -5 18 0 9 5 43 14 75 21 77 17 127 64 127 120 0 63 -50 89
-111 56z"/>
<path d="M3499 3223 c-29 -35 -41 -53 -36 -53 2 0 17 16 31 35 28 36 31 49 5
18z"/>
</g>
</svg>
